
<svg version="1.1" xmlns="http://www.w3.org/2000/svg" xmlns:xlink="http://www.w3.org/1999/xlink" x="0px" y="0px"
	 viewBox="0 0 42 38" style="enable-background:new 0 0 125 38;" xml:space="preserve">
    <path fill="#3B474F" d="M41,15c0-4.4-3.6-8-8-8c-3.8,0-5,1.5-9,2c-2.4,0.3-2.3-1-5-1c-2,0-4,1-4,1s-1.9-2.3-3-2c-1.5,0.5,0,5,0,5
        s-1,2-3,4c-1.5,1.5-5,2.3-6.8,2.8C2.3,9.6,9.8,2.1,19,2.1c4,0,7.7,1.4,10.6,3.8c0.7-0.2,1.6-0.3,2.5-0.4c-3.4-3.3-8-5.4-13.2-5.4
        C8.6,0.1,0.1,8.6,0.1,19c0,10.4,8.5,18.8,18.9,18.8c9.1,0,16.7-6.4,18.4-15c-0.8,0.4-1.6,0.8-2.4,1.2c-2.1,6.6-8.1,11.5-15.4,11.8
        c1-1.7,3.3-4.9,6.3-7.8C32.6,21.6,41,22.6,41,15z M20.5,14c-0.8,0-1.5-0.7-1.5-1.5s0.7-1.5,1.5-1.5s1.5,0.7,1.5,1.5S21.3,14,20.5,14
        z"/>
</svg>
